<?xml version="1.0" standalone="no"?>
<!DOCTYPE svg PUBLIC "-//W3C//DTD SVG 20010904//EN"
 "http://www.w3.org/TR/2001/REC-SVG-20010904/DTD/svg10.dtd">
<svg version="1.0" xmlns="http://www.w3.org/2000/svg"
 width="1280.000000pt" height="953.000000pt" viewBox="0 0 1280.000000 953.000000"
 preserveAspectRatio="xMidYMid meet">
<metadata>
Created by potrace 1.15, written by Peter Selinger 2001-2017
</metadata>
<g transform="translate(0.000000,953.000000) scale(0.100000,-0.100000)"
fill="#000000" stroke="none">
<path d="M10361 9522 c-74 -1 -140 -7 -147 -13 -6 -5 -40 -23 -75 -40 -72 -35
-129 -75 -129 -90 0 -6 -22 -31 -49 -55 -29 -26 -63 -71 -86 -116 -27 -52 -68
-104 -144 -183 -182 -189 -314 -382 -469 -685 -118 -232 -242 -402 -423 -580
-125 -124 -223 -193 -394 -278 -269 -133 -419 -182 -938 -304 -315 -74 -354
-81 -495 -89 -84 -4 -271 -25 -415 -45 -219 -31 -291 -38 -437 -38 -96 0 -213
5 -260 11 -224 32 -291 35 -610 23 -276 -11 -335 -10 -474 4 -247 25 -362 21
-536 -19 -36 -8 -112 -22 -170 -31 -516 -78 -1008 -339 -1579 -837 -75 -65
-280 -255 -455 -420 -175 -166 -358 -337 -405 -380 -206 -189 -413 -316 -606
-374 l-90 -27 -475 -4 c-522 -3 -500 0 -500 -64 0 -65 115 -143 282 -192 191
-55 351 -76 583 -76 265 0 369 19 573 105 221 93 376 207 682 500 202 194 311
289 407 354 59 39 324 183 329 178 1 -1 9 -105 18 -232 9 -126 22 -267 30
-311 16 -91 58 -224 85 -269 10 -16 28 -64 40 -105 13 -41 52 -131 88 -199
102 -193 111 -226 139 -471 57 -507 40 -710 -81 -966 -65 -138 -154 -273 -301
-455 l-112 -139 -11 -77 c-50 -333 -39 -621 34 -953 15 -66 16 -123 10 -490
-8 -453 -2 -549 42 -700 45 -158 138 -283 264 -358 55 -32 56 -32 100 -17 36
13 82 16 249 13 181 -3 209 -1 237 15 51 27 55 43 47 190 l-7 132 -36 36 c-30
31 -49 39 -116 54 -123 26 -174 44 -211 77 l-34 30 0 97 c0 297 44 567 186
1146 80 326 89 356 135 440 107 194 261 380 413 500 45 35 124 111 176 170 52
59 158 169 236 244 78 75 176 181 219 236 106 136 280 400 378 573 86 152 131
204 194 221 63 18 195 12 330 -13 197 -38 215 -40 256 -22 50 21 62 53 47 131
-7 33 -16 68 -21 78 -7 13 -6 17 6 17 41 0 206 -64 293 -114 296 -169 594
-272 967 -336 106 -18 138 -27 172 -51 101 -71 196 -97 487 -134 196 -26 268
-42 322 -76 31 -19 32 -21 39 -122 7 -110 20 -241 60 -602 19 -170 28 -326 35
-595 13 -499 28 -711 75 -1065 13 -99 26 -232 30 -295 19 -359 100 -836 147
-861 31 -17 199 -48 318 -60 181 -18 455 4 638 49 l67 17 -2 54 c-7 154 -79
240 -338 404 -136 86 -204 150 -236 221 -24 54 -28 136 -10 203 18 66 30 366
31 723 0 292 2 332 19 393 29 102 47 197 86 457 46 307 69 417 117 569 103
323 261 609 540 978 101 134 126 175 253 428 195 388 260 577 284 825 23 225
67 384 181 645 123 283 190 448 190 472 0 42 30 144 61 210 40 85 126 197 250
328 57 61 125 134 151 163 l47 53 18 -28 c27 -43 35 -49 78 -58 86 -19 753 4
855 30 132 32 244 84 326 150 64 53 224 370 224 446 0 11 27 49 60 84 88 94
100 141 54 202 -36 47 -167 142 -227 165 -75 29 -98 42 -189 111 -84 65 -153
109 -331 211 -133 77 -195 123 -213 158 -10 19 -18 68 -21 127 -2 53 -10 112
-15 131 -6 19 -12 49 -13 66 -3 50 -29 81 -114 134 -43 28 -92 67 -109 89 -17
22 -66 60 -109 86 -43 26 -87 55 -98 65 -11 10 -45 28 -75 40 -132 53 -137 53
-460 54 -168 1 -365 0 -439 -2z"/>
</g>
</svg>
